:FULLY-SPECIFIED
:FORCE-ALL-JOINTS-BE-3DOF
:DEGREES
815
root 1.95976 16.7106 22.541 4.95351 1.75924 353.589
lfemur -39.7185 0.637602 -0.489537
ltibia 22.2708 0 0
lfoot -9.32121 6.50719 0
ltoes 15.3778 0 0
rfemur 0.615629 4.96616 21.8802
rtibia 22.7628 0 0
rfoot -22.3311 -10.1585 0
rtoes -21.99 0 0
lowerback 0.974778 5.90125 5.59965
upperback -0.0756117 7.92978 -0.33732
thorax 0.181258 3.96842 -3.45344
lowerneck -5.95748 -1.67024 2.88039
upperneck -0.905651 -2.42186 1.35792
head 0.685152 -1.19463 -0.11475
lclavicle -2.74006e-14 -4.17274e-16 0
lhumerus -53.144 -7.28 91.7714
lradius 54.0674 0 0
lwrist 19.6319 0 0
lhand -11.3134 5.13651 0
lfingers 7.12502 0 0
lthumb 14.718 34.5847 0
rclavicle -2.74006e-14 -4.17274e-16 0
rhumerus -30.885 45.582 -111.562
rradius 67.6412 0 0
rwrist -1.1202 0 0
rhand -11.1306 -25.3709 0
rfingers 7.12502 0 0
rthumb 14.8941 -774.809 0
816
root 1.99245 16.6874 22.7044 4.93588 0.399639 353.321
lfemur -38.9082 0.235176 0.586553
ltibia 20.6769 0 0
lfoot -9.00066 8.45779 0
ltoes 16.1951 0 0
rfemur 1.69462 5.46506 22.0448
rtibia 21.7853 0 0
rfoot -22.1564 -10.5928 0
rtoes -22.5568 0 0
lowerback 0.792559 6.10654 5.69399
upperback -0.113225 8.19382 -0.266747
thorax 0.273387 4.10192 -3.40613
lowerneck -5.86578 -1.61803 2.96682
upperneck -0.722186 -2.3593 1.35919
head 0.726351 -1.16135 -0.127585
lclavicle -2.16383e-14 -5.72593e-16 0
lhumerus -53.125 -7.09417 91.5497
lradius 53.5775 0 0
lwrist 19.4018 0 0
lhand -10.5146 5.2286 0
lfingers 7.12502 0 0
lthumb 15.4873 34.6169 0
rclavicle -2.16383e-14 -5.72593e-16 0
rhumerus -30.5906 45.5801 -111.048
rradius 67.5053 0 0
rwrist -1.46634 0 0
rhand -10.229 -24.8488 0
rfingers 7.12502 0 0
rthumb 15.7624 -774.217 0
817
root 2.0266 16.6612 22.8711 4.89207 -0.915804 353.061
lfemur -38.0574 -0.179918 1.62997
ltibia 19.2675 0 0
lfoot -8.69583 10.4215 0
ltoes 17.0325 0 0
rfemur 2.7894 5.90224 22.1855
rtibia 20.8688 0 0
rfoot -21.9718 -11.0752 0
rtoes -23.2041 0 0
lowerback 0.605478 6.31533 5.77888
upperback -0.155286 8.46182 -0.198278
thorax 0.363001 4.23724 -3.35465
lowerneck -5.76717 -1.5736 3.05133
upperneck -0.516539 -2.30715 1.36407
head 0.773604 -1.13281 -0.13937
lclavicle -1.59193e-14 -5.87661e-16 0
lhumerus -53.1316 -6.88995 91.3059
lradius 53.1245 0 0
lwrist 19.1887 0 0
lhand -9.64436 5.30371 0
lfingers 7.12502 0 0
lthumb 16.3254 34.6259 0
rclavicle -1.59193e-14 -5.87661e-16 0
rhumerus -30.3044 45.5522 -110.493
rradius 67.3795 0 0
rwrist -1.78451 0 0
rhand -9.34254 -24.3058 0
rfingers 7.12502 0 0
rthumb 16.6159 -773.604 0
818
root 2.06286 16.6331 23.0409 4.82299 -2.16516 352.818
lfemur -37.2211 -0.540526 2.56124
ltibia 18.1123 0 0
lfoot -8.38699 12.2545 0
ltoes 17.8274 0 0
rfemur 3.86701 6.24156 22.2767
rtibia 20.0564 0 0
rfoot -21.7792 -11.5542 0
rtoes -23.965 0 0
lowerback 0.414087 6.51702 5.85256
upperback -0.202433 8.71982 -0.131104
thorax 0.447153 4.3673 -3.29791
lowerneck -5.66904 -1.53308 3.13724
upperneck -0.288511 -2.26063 1.36631
head 0.82822 -1.10659 -0.152562
lclavicle -1.03662e-14 -4.83342e-16 0
lhumerus -53.1719 -6.66601 91.0457
lradius 52.7147 0 0
lwrist 18.973 0 0
lhand -8.75836 5.36862 0
lfingers 7.12502 0 0
lthumb 17.1786 34.6217 0
rclavicle -1.03662e-14 -4.83342e-16 0
rhumerus -30.0342 45.4834 -109.885
rradius 67.2569 0 0
rwrist -2.0653 0 0
rhand -8.51101 -23.7494 0
rfingers 7.12502 0 0
rthumb 17.4165 -772.98 0
819
root 2.10183 16.6039 23.2135 4.72955 -3.32649 352.603
lfemur -36.4545 -0.779496 3.3009
ltibia 17.2811 0 0
lfoot -8.05436 13.8128 0
ltoes 18.5168 0 0
rfemur 4.89448 6.44688 22.2932
rtibia 19.3914 0 0
rfoot -21.5808 -11.9781 0
rtoes -24.8723 0 0
lowerback 0.218939 6.701 5.91326
upperback -0.255305 8.95389 -0.064412
thorax 0.522898 4.485 -3.23481
lowerneck -5.57879 -1.49259 3.22788
upperneck -0.0378979 -2.21494 1.35966
head 0.891508 -1.08029 -0.169615
lclavicle -5.10168e-15 -2.80501e-16 0
lhumerus -53.2541 -6.42105 90.7745
lradius 52.3548 0 0
lwrist 18.7347 0 0
lhand -7.91223 5.4301 0
lfingers 7.12502 0 0
lthumb 17.9931 34.6146 0
rclavicle -5.10168e-15 -2.80501e-16 0
rhumerus -29.7876 45.3587 -109.214
rradius 67.1307 0 0
rwrist -2.29934 0 0
rhand -7.77428 -23.1874 0
rfingers 7.12502 0 0
rthumb 18.1257 -772.358 0
820
root 2.14416 16.5748 23.3889 4.61266 -4.37788 352.424
lfemur -35.8129 -0.829675 3.76948
ltibia 16.8436 0 0
lfoot -7.6782 14.9523 0
ltoes 19.0378 0 0
rfemur 5.83887 6.48206 22.2095
rtibia 18.917 0 0
rfoot -21.3786 -12.2951 0
rtoes -25.9589 0 0
lowerback 0.0205861 6.85666 5.95921
upperback -0.314538 9.1501 0.00260752
thorax 0.58729 4.58326 -3.16423
lowerneck -5.50381 -1.44827 3.32656
upperneck 0.235501 -2.16531 1.33786
head 0.964776 -1.05151 -0.192986
lclavicle -2.48481e-16 0 0
lhumerus -53.3862 -6.15374 90.498
lradius 52.0513 0 0
lwrist 18.4542 0 0
lhand -7.16163 5.49493 0
lfingers 7.12502 0 0
lthumb 18.7154 34.6146 0
rclavicle -2.48481e-16 0 0
rhumerus -29.5725 45.1631 -108.471
rradius 66.9941 0 0
rwrist -2.47723 0 0
rhand -7.17223 -22.6272 0
rfingers 7.12502 0 0
rthumb 18.7052 -771.748 0
821
root 2.18911 16.5436 23.5676 4.48005 -5.36451 352.271
lfemur -35.289 -0.607705 3.9461
ltibia 16.9006 0 0
lfoot -7.27085 15.7406 0
ltoes 19.5383 0 0
rfemur 6.76843 6.34788 22.0475
rtibia 18.514 0 0
rfoot -21.2429 -12.5818 0
rtoes -27.312 0 0
lowerback -0.188946 6.99419 5.99973
upperback -0.385116 9.32114 0.0690866
thorax 0.642088 4.66831 -3.09015
lowerneck -5.4385 -1.39051 3.44148
upperneck 0.534384 -2.09902 1.29594
head 1.04774 -1.01394 -0.225083
lclavicle 4.81209e-15 6.18956e-16 0
lhumerus -53.5945 -5.84467 90.2025
lradius 51.8222 0 0
lwrist 18.1106 0 0
lhand -6.46435 5.55589 0
lfingers 7.12502 0 0
lthumb 19.3859 34.6098 0
rclavicle 4.81209e-15 6.18956e-16 0
rhumerus -29.3653 44.9278 -107.666
rradius 66.8683 0 0
rwrist -2.61933 0 0
rhand -6.60804 -22.03 0
rfingers 7.12502 0 0
rthumb 19.2483 -771.105 0
822
root 2.23588 16.5087 23.7499 4.3335 -6.32095 352.13
lfemur -34.8314 -0.145493 3.89443
ltibia 17.4236 0 0
lfoot -6.85398 16.3283 0
ltoes 20.1233 0 0
rfemur 7.73522 6.07671 21.8369
rtibia 18.1043 0 0
rfoot -21.1953 -12.9096 0
rtoes -28.9313 0 0
lowerback -0.412806 7.1264 6.03949
upperback -0.468133 9.48365 0.134015
thorax 0.690496 4.74851 -3.01486
lowerneck -5.37441 -1.31955 3.57243
upperneck 0.859469 -2.01606 1.23778
head 1.13914 -0.967631 -0.264526
lclavicle 1.03953e-14 1.68185e-15 0
lhumerus -53.8807 -5.48852 89.8785
lradius 51.6678 0 0
lwrist 17.7146 0 0
lhand -5.75686 5.60456 0
lfingers 7.12502 0 0
lthumb 20.0659 34.5871 0
rclavicle 1.03953e-14 1.68185e-15 0
rhumerus -29.1514 44.6766 -106.813
rradius 66.7666 0 0
rwrist -2.74076 0 0
rhand -6.01401 -21.376 0
rfingers 7.12502 0 0
rthumb 19.82 -770.402 0
823
root 2.285 16.4719 23.9354 4.16497 -7.20931 352.011
lfemur -34.4288 0.451221 3.66185
ltibia 18.2887 0 0
lfoot -6.42183 16.6956 0
ltoes 20.666 0 0
rfemur 8.68195 5.67983 21.5645
rtibia 17.7926 0 0
rfoot -21.1649 -13.2193 0
rtoes -30.7188 0 0
lowerback -0.643203 7.24665 6.06977
upperback -0.558394 9.62956 0.197991
thorax 0.731738 4.82001 -2.93477
lowerneck -5.3147 -1.24629 3.71009
upperneck 1.20799 -1.93077 1.17047
head 1.23883 -0.919673 -0.308089
lclavicle 1.59234e-14 2.93483e-15 0
lhumerus -54.2155 -5.10516 89.5377
lradius 51.5678 0 0
lwrist 17.2935 0 0
lhand -5.06282 5.64589 0
lfingers 7.12502 0 0
lthumb 20.7328 34.5551 0
rclavicle 1.59234e-14 2.93483e-15 0
rhumerus -28.9517 44.3832 -105.902
rradius 66.6699 0 0
rwrist -2.82431 0 0
rhand -5.47367 -20.7017 0
rfingers 7.12502 0 0
rthumb 20.34 -769.682 0
824
root 2.33697 16.435 24.1235 3.96641 -7.99171 351.921
lfemur -34.0702 1.07669 3.29573
ltibia 19.3719 0 0
lfoot -5.96865 16.8232 0
ltoes 21.0397 0 0
rfemur 9.55136 5.16851 21.2169
rtibia 17.6837 0 0
rfoot -21.0806 -13.4515 0
rtoes -32.5764 0 0
lowerback -0.872349 7.3483 6.08184
upperback -0.650702 9.75081 0.261612
thorax 0.765036 4.87895 -2.84629
lowerneck -5.26248 -1.18162 3.84517
upperneck 1.57719 -1.85746 1.10105
head 1.34665 -0.87717 -0.352543
lclavicle 2.08186e-14 4.12406e-15 0
lhumerus -54.5702 -4.71446 89.192
lradius 51.502 0 0
lwrist 16.8748 0 0
lhand -4.40587 5.68483 0
lfingers 7.12502 0 0
lthumb 21.3638 34.5226 0
rclavicle 2.08186e-14 4.12406e-15 0
rhumerus -28.787 44.0214 -104.928
rradius 66.5592 0 0
rwrist -2.85274 0 0
rhand -5.07054 -20.0433 0
rfingers 7.12502 0 0
rthumb 20.7279 -768.988 0
825
root 2.39233 16.3997 24.3136 3.72978 -8.63025 351.869
lfemur -33.7442 1.62519 2.84344
ltibia 20.5492 0 0
lfoot -5.48868 16.6915 0
ltoes 21.1176 0 0
rfemur 10.2862 4.55403 20.7807
rtibia 17.8823 0 0
rfoot -20.8715 -13.547 0
rtoes -34.4059 0 0
lowerback -1.09245 7.4247 6.06698
upperback -0.739862 9.83935 0.325476
thorax 0.789616 4.92146 -2.74581
lowerneck -5.22091 -1.13643 3.96836
upperneck 1.9643 -1.81045 1.0366
head 1.46246 -0.847223 -0.394661
lclavicle 2.45031e-14 4.99569e-15 0
lhumerus -54.9158 -4.33628 88.8533
lradius 51.4501 0 0
lwrist 16.4859 0 0
lhand -3.80969 5.72635 0
lfingers 7.12502 0 0
lthumb 21.9363 34.4981 0
rclavicle 2.45031e-14 4.99569e-15 0
rhumerus -28.6781 43.5651 -103.882
rradius 66.4155 0 0
rwrist -2.80885 0 0
rhand -4.88814 -19.4374 0
rfingers 7.12502 0 0
rthumb 20.9031 -768.362 0
826
root 2.4516 16.3677 24.5052 3.44705 -9.08706 351.862
lfemur -33.4396 1.99096 2.35236
ltibia 21.6967 0 0
lfoot -4.97618 16.281 0
ltoes 20.7727 0 0
rfemur 10.8291 3.84765 20.2425
rtibia 18.4931 0 0
rfoot -20.4666 -13.4465 0
rtoes -36.1092 0 0
lowerback -1.29573 7.4692 6.01646
upperback -0.820678 9.88712 0.390182
thorax 0.804699 4.94368 -2.62975
lowerneck -5.19311 -1.12162 4.07036
upperneck 2.36655 -1.80405 0.984174
head 1.5861 -0.836932 -0.431216
lclavicle 2.63992e-14 5.2959e-15 0
lhumerus -55.2232 -3.99047 88.5333
lradius 51.3919 0 0
lwrist 16.1541 0 0
lhand -3.29793 5.7754 0
lfingers 7.12502 0 0
lthumb 22.4278 34.4902 0
rclavicle 2.63992e-14 5.2959e-15 0
rhumerus -28.6461 42.9881 -102.756
rradius 66.2197 0 0
rwrist -2.6754 0 0
rhand -5.00999 -18.9203 0
rfingers 7.12502 0 0
rthumb 20.7853 -767.848 0
